<mxfile host="app.diagrams.net" modified="2024-01-25T15:57:04.445Z" agent="Mozilla/5.0 (X11; Ubuntu; Linux x86_64; rv:121.0) Gecko/20100101 Firefox/121.0" version="22.1.18" etag="ZqnDysXyfArbci9a3u-9" type="github">
  <diagram name="PÃ¡gina-1" id="vqabzCDK_DU7xPkbPqb2">
    <mxGraphModel>
      <root>
        <mxCell id="0" />
        <mxCell id="1" parent="0" />
      </root>
    </mxGraphModel>
  </diagram>
</mxfile>
